<svg width="55" height="54" viewBox="0 0 55 54" fill="none" xmlns="http://www.w3.org/2000/svg">
<path d="M27.8095 0C12.9265 0 0.861328 12.0652 0.861328 26.9482C0.861328 41.8311 12.9265 53.8963 27.8095 53.8963C42.6925 53.8963 54.7577 41.8311 54.7577 26.9482C54.7577 12.0652 42.6925 0 27.8095 0ZM15.0683 17.1422H40.5507C40.6307 17.1422 40.71 17.148 40.7885 17.1612L31.202 25.6776L31.0794 25.7863L27.8132 28.6884L24.497 25.7444L24.4956 25.743L24.4758 25.7254C24.4758 25.7254 24.4721 25.721 24.4699 25.7195L14.8312 17.1605C14.9097 17.1473 14.989 17.1414 15.069 17.1414L15.0683 17.1422ZM13.5365 35.2224V18.674C13.5365 18.6035 13.5409 18.5345 13.5504 18.4663L22.5468 26.4535L13.5526 35.4477C13.5416 35.3736 13.5365 35.2987 13.5365 35.2224ZM40.55 36.7534H15.0676C14.992 36.7534 14.9164 36.7476 14.8422 36.7373L23.9128 27.6667L27.2054 30.5909C27.3787 30.7443 27.5944 30.8214 27.811 30.8214C28.0275 30.8214 28.244 30.7443 28.4165 30.5909L31.7055 27.6697L40.7731 36.7373C40.699 36.7483 40.6241 36.7542 40.5485 36.7542L40.55 36.7534ZM42.0818 35.2224C42.0818 35.298 42.0759 35.3736 42.0656 35.4477L33.0736 26.4557L42.0678 18.4663C42.0774 18.5345 42.0825 18.6035 42.0825 18.674V35.2224H42.0818Z" fill="#333333"/>
</svg>
