<svg width="54" height="54" viewBox="0 0 54 54" fill="none" xmlns="http://www.w3.org/2000/svg">
<path d="M26.7877 21.6875C23.821 21.6875 21.4082 24.1003 21.4082 27.067C21.4082 30.0336 23.821 32.4464 26.7877 32.4464C29.7543 32.4464 32.1671 30.0328 32.1671 27.067C32.1671 24.1011 29.7543 21.6875 26.7877 21.6875Z" fill="#333333"/>
<path d="M40.0135 25.2007C40.0135 23.7115 40.0149 22.3048 39.9244 20.5669V20.5428C39.8719 19.3506 39.6888 18.3561 39.3787 17.5857L39.3641 17.5492L39.3502 17.5127C39.0985 16.8349 38.7104 16.2417 38.1653 15.6982L38.1383 15.6719L38.1121 15.6449C37.6466 15.1561 37.0571 14.7781 36.3107 14.4899L36.2997 14.4855C35.4446 14.1506 34.456 13.966 33.3616 13.9361L33.3068 13.9347L33.2528 13.931C32.2737 13.8676 30.554 13.8354 28.1404 13.8354C27.7092 13.8354 27.2612 13.8369 26.7987 13.8384H26.7746C26.312 13.8369 25.8648 13.8354 25.4336 13.8354C23.02 13.8354 21.3003 13.8676 20.3211 13.931L20.2671 13.9347L20.2124 13.9361C19.1187 13.966 18.1294 14.1506 17.2743 14.4855L17.2633 14.4899C16.5169 14.7788 15.9274 15.1561 15.4612 15.6449L15.4349 15.6719L15.4079 15.6982C14.8622 16.2417 14.4747 16.8349 14.223 17.5127L14.2092 17.5492L14.1946 17.5857C13.8845 18.3561 13.7013 19.3506 13.6495 20.5428V20.5669C13.5591 22.3048 13.5598 23.7115 13.5598 25.2007C13.5598 25.7975 13.5598 26.414 13.5547 27.0692C13.5598 27.7244 13.5598 28.3409 13.5598 28.9378C13.5598 30.4269 13.5583 31.8336 13.6488 33.5708V33.5956C13.7013 34.7878 13.8845 35.7823 14.1946 36.5528L14.2092 36.5892L14.223 36.6257C14.4747 37.3035 14.8622 37.896 15.4079 38.4395L15.4349 38.4658L15.4612 38.4928C15.9274 38.9816 16.5162 39.3596 17.2633 39.6478L17.2743 39.6522C18.1294 39.9863 19.1187 40.1709 20.2132 40.2016L20.2671 40.203L20.3211 40.2067C21.3003 40.2701 23.02 40.3022 25.4328 40.3022C25.864 40.3022 26.3127 40.3008 26.7753 40.2993H26.7994C27.262 40.3008 27.7107 40.3022 28.1419 40.3022C30.5547 40.3022 32.2744 40.2701 33.2536 40.2067L33.3076 40.203L33.3616 40.2016C34.4567 40.1716 35.4453 39.9863 36.3004 39.6522L36.3114 39.6478C37.0578 39.3589 37.6473 38.9816 38.1128 38.4928L38.1391 38.4658L38.1661 38.4395C38.7118 37.896 39.0992 37.3035 39.351 36.6257L39.3648 36.5892L39.3794 36.5528C39.6895 35.7823 39.8726 34.7878 39.9244 33.5956V33.5708C40.0149 31.8329 40.0142 30.4262 40.0142 28.9378C40.0142 28.3409 40.0142 27.7244 40.0193 27.0692C40.0142 26.414 40.0142 25.7975 40.0142 25.2007H40.0135ZM26.7877 35.3511C22.2123 35.3511 18.5037 31.6424 18.5037 27.067C18.5037 22.4916 22.2123 18.783 26.7877 18.783C31.3631 18.783 35.0718 22.4916 35.0718 27.067C35.0718 31.6424 31.3631 35.3511 26.7877 35.3511ZM35.4008 20.3918C34.3312 20.3918 33.4644 19.525 33.4644 18.4546C33.4644 17.3843 34.3319 16.5175 35.4008 16.5175C36.4697 16.5175 37.338 17.3843 37.338 18.4546C37.338 19.525 36.4704 20.3918 35.4008 20.3918Z" fill="#333333"/>
<path d="M26.7878 0.280762C11.9934 0.280762 0 12.2742 0 27.0686C0 41.863 11.9934 53.8564 26.7878 53.8564C41.5822 53.8564 53.5757 41.863 53.5757 27.0686C53.5757 12.2742 41.5822 0.280762 26.7878 0.280762ZM42.924 27.0708C42.9043 29.3683 42.9568 31.1902 42.8262 33.7205C42.7642 35.1505 42.5417 36.4748 42.0733 37.6378C41.664 38.7388 41.0321 39.6844 40.2149 40.4979C39.451 41.299 38.4967 41.917 37.3585 42.3569C36.1831 42.8166 34.8771 43.0654 33.4412 43.1048C32.1045 43.1916 29.7493 43.2157 26.7878 43.2033C23.8263 43.2157 21.4704 43.1909 20.1345 43.1048C18.6986 43.0654 17.3933 42.8166 16.2172 42.3569C15.079 41.917 14.1246 41.299 13.3607 40.4979C12.5435 39.6844 11.9117 38.7388 11.5024 37.6378C11.034 36.4748 10.8114 35.1505 10.7494 33.7205C10.6495 31.7826 10.6568 30.2599 10.6568 28.6205C10.6568 28.1192 10.6568 27.6085 10.6517 27.07V27.0664C10.6714 24.7688 10.6188 22.947 10.7494 20.4167C10.8114 18.9866 11.034 17.6624 11.5024 16.4994C11.9117 15.3984 12.5435 14.4528 13.3607 13.6393C14.1246 12.8382 15.079 12.2202 16.2172 11.7802C17.3926 11.3206 18.6986 11.0718 20.1345 11.0324C21.4711 10.9455 23.8263 10.9215 26.7878 10.9339C29.7493 10.9215 32.1045 10.9463 33.4412 11.0324C34.8771 11.0718 36.1824 11.3206 37.3585 11.7802C38.4967 12.2202 39.451 12.8382 40.2149 13.6393C41.0321 14.4528 41.664 15.3984 42.0733 16.4994C42.5417 17.6624 42.7642 18.9866 42.8262 20.4167C42.9262 22.3545 42.9189 23.8773 42.9189 25.5167C42.9189 26.0179 42.9189 26.5287 42.924 27.0671V27.0708Z" fill="#333333"/>
</svg>
