<svg width="26" height="27" viewBox="0 0 26 27" fill="none" xmlns="http://www.w3.org/2000/svg">
<path d="M7.54825 14.0548L15.31 4.23635M11.341 9.21667L8.22421 6.51586M19.503 7.79251L10.6567 18.3825M10.8084 10.8775C10.8084 11.5811 11.0879 12.2559 11.5854 12.7535C12.083 13.251 12.7578 13.5306 13.4614 13.5306C14.1651 13.5306 14.8399 13.251 15.3374 12.7535C15.835 12.2559 16.1145 11.5811 16.1145 10.8775C16.1145 10.1739 15.835 9.49904 15.3374 9.00149C14.8399 8.50395 14.1651 8.22443 13.4614 8.22443C12.7578 8.22443 12.083 8.50395 11.5854 9.00149C11.0879 9.49904 10.8084 10.1739 10.8084 10.8775ZM19.3948 7.56223C19.8956 8.52476 20.1535 9.59341 20.1472 10.6769C20.1515 11.8452 19.8902 12.9992 19.3831 14.0516C18.7477 15.1813 18.0053 16.2474 17.1662 17.2353C16.3342 18.2254 15.585 19.2835 14.927 20.3977C14.5938 21.0557 14.3242 21.7455 14.1236 22.4544C13.9952 22.8364 13.8297 23.0816 13.4636 23.0816C13.1293 23.0816 12.9722 22.9373 12.7992 22.4523C12.5947 21.7266 12.3178 21.0234 11.9725 20.3532C11.5213 19.5793 11.0167 18.8379 10.4624 18.1341C9.53173 16.8777 8.15002 15.4439 7.43475 13.8139C6.99024 12.8243 6.76541 11.7501 6.77573 10.6653C6.76816 9.08997 7.32367 7.56381 8.3421 6.36199C8.96606 5.61445 9.74695 5.01347 10.6293 4.60171C11.5117 4.18996 12.4739 3.97754 13.4476 3.97954C14.1374 3.97706 14.8236 4.07867 15.4831 4.28092C16.3194 4.54259 17.0956 4.96726 17.767 5.53044C18.4384 6.09362 18.9916 6.78417 19.3948 7.56223Z" stroke="white" stroke-width="1.06122" stroke-linecap="round" stroke-linejoin="round"/>
</svg>
