<svg width="54" height="54" viewBox="0 0 54 54" fill="none" xmlns="http://www.w3.org/2000/svg">
<path d="M26.8131 0C12.1369 0 0.239258 12.0652 0.239258 26.9482C0.239258 41.8311 12.1369 53.8963 26.8131 53.8963C41.4894 53.8963 53.387 41.8311 53.387 26.9482C53.387 12.0652 41.4894 0 26.8131 0ZM26.2428 14.7156C26.279 14.2187 26.706 13.8466 27.196 13.8825C30.4321 14.127 33.4763 15.5413 35.7686 17.8659C38.0623 20.1911 39.457 23.279 39.6966 26.5599C39.7328 27.0568 39.3651 27.4898 38.8751 27.5265C38.8526 27.528 38.8302 27.5287 38.8085 27.5287C38.3467 27.5287 37.9566 27.1676 37.9219 26.6927C37.7134 23.8434 36.5018 21.1615 34.5099 19.1415C32.5188 17.1223 29.8748 15.8937 27.0636 15.6815C26.5736 15.6448 26.2059 15.2118 26.2421 14.7149L26.2428 14.7156ZM33.9179 27.4928C33.8795 27.4979 33.8411 27.5001 33.8035 27.5001C33.362 27.5001 32.9791 27.1676 32.9219 26.7118C32.7294 25.1866 32.0606 23.8053 30.9865 22.716C29.9124 21.6268 28.5502 20.9479 27.0469 20.7534C26.5591 20.6902 26.2146 20.2381 26.2768 19.7441C26.3391 19.2494 26.7849 18.8986 27.272 18.9632C29.1698 19.2091 30.8895 20.0656 32.2444 21.4396C33.5994 22.8136 34.444 24.5576 34.6872 26.4821C34.7495 26.9768 34.405 27.4289 33.9171 27.4921L33.9179 27.4928ZM38.9967 37.5909L38.2584 38.3425C37.4181 39.1947 36.3317 39.7584 35.1591 39.9419C34.9992 39.9668 34.8363 39.9852 34.6735 39.9954C31.7993 40.1855 28.7145 39.1308 25.4445 36.9736C25.3402 36.9054 25.2367 36.8356 25.1325 36.7652C21.9732 34.6205 19.2481 31.857 17.1332 28.6532C17.0594 28.5416 16.987 28.4293 16.9153 28.3178C14.7939 25.0083 13.7603 21.8866 13.9464 18.9779C13.9572 18.812 13.9753 18.6476 13.9999 18.4839C14.1816 17.2948 14.736 16.1946 15.5785 15.3402L16.3168 14.5916C17.3641 13.5295 19.1084 13.6734 19.9929 14.8925L23.0567 19.121C23.7674 20.1045 23.6712 21.4602 22.8272 22.316L22.1143 23.039C22.0817 23.072 22.0506 23.1058 22.0202 23.1403L21.8784 23.2841C21.5367 23.6306 21.4289 24.148 21.6004 24.606C22.9829 28.2847 25.4828 30.8243 29.1076 32.2196C29.5585 32.3936 30.0688 32.2835 30.4097 31.9378C30.4994 31.8695 30.5855 31.7939 30.6673 31.711L31.381 30.9873C32.2249 30.1344 33.5625 30.0346 34.5316 30.7575L38.6992 33.8623C39.9043 34.7621 40.0462 36.5288 38.9967 37.5909Z" fill="#333333"/>
</svg>
