<svg width="30" height="20" viewBox="0 0 30 20" fill="none" xmlns="http://www.w3.org/2000/svg">
<path d="M11.0627 0.0535784C15.2138 -0.0255844 19.7553 -0.0711559 23.8739 0.321604C27.0975 0.628859 28.2684 1.37633 28.7247 4.62294C29.1836 7.88858 29.2765 13.3691 28.5167 16.5624C27.6878 20.0454 24.1348 19.7134 21.1947 19.848C16.7711 20.0505 12.3074 20.0515 7.88965 19.848C4.9507 19.7127 1.38953 20.0439 0.559032 16.5709C-0.16206 13.554 -0.0763523 8.89491 0.209499 5.78995C0.519769 2.41766 1.01055 0.787185 4.73212 0.36882C6.77282 0.139319 9.00193 0.0930424 11.0627 0.0535784ZM11.6469 14.3088L19.1595 10.014L11.6469 5.71924V14.3088Z" fill="white"/>
</svg>
