<svg width="176" height="56" viewBox="0 0 176 56" fill="none" xmlns="http://www.w3.org/2000/svg">
<g clip-path="url(#clip0_74_90)">
<path fill-rule="evenodd" clip-rule="evenodd" d="M20.188 55.9999C28.9969 50.0433 38.4963 45.0454 48.2897 40.9294C58.1982 36.7623 68.5158 33.5539 79.0379 31.3298C89.7135 29.0673 100.594 27.8657 111.499 27.5334C122.354 27.201 133.221 27.7123 144.012 29.0161C149.394 29.6553 154.713 30.5628 160.044 31.5343C161.349 31.7772 162.653 32.0967 163.957 32.2629C165.222 32.4291 166.041 31.7005 166.884 30.8696C167.102 30.6523 167.626 30.141 167.204 29.8598C166.782 29.5786 166.066 29.5658 165.58 29.4763C164.264 29.2207 162.947 28.9778 161.63 28.7477C151.005 26.8559 140.228 25.5521 129.437 25.1047C118.531 24.6445 107.638 25.028 96.7837 26.3063C86.3382 27.5334 76.0078 29.7703 65.9715 32.9404C60.8319 34.5637 55.7434 36.3788 50.7828 38.4752C45.8861 40.5459 41.1045 42.8723 36.3995 45.3394C33.395 46.9116 30.4672 48.6117 27.5906 50.3884C26.1714 51.2704 24.7139 52.1396 23.3459 53.0983C22.1825 53.9036 20.9935 54.8112 20.188 55.9872" fill="black"/>
<path d="M19.2545 10.9034C19.7148 10.9929 19.9832 11.4275 19.881 11.8749C19.7659 12.3223 19.3312 12.6035 18.8837 12.514C15.8025 11.9133 8.29764 13.9712 4.10412 16.3616C2.99181 17.0007 2.13521 17.6015 1.72609 18.1895C1.49596 18.509 1.43203 18.803 1.63659 19.0331C2.23749 19.7234 3.92513 20.3497 7.10862 20.7332C7.17255 20.7332 7.32597 20.7587 7.51775 20.7715C8.64284 20.8993 11.2766 21.1678 13.45 21.9475C17.797 19.276 21.6197 17.2308 22.796 16.745C23.3713 16.4638 23.7549 16.6044 23.9466 17.0774C24.2023 17.6526 23.6398 18.4962 22.911 19.5827C22.0161 20.9249 20.7759 22.8167 20.8143 23.7626C20.8398 24.031 21.185 24.1972 22.08 24.1589C26.2352 23.8521 29.2141 19.5955 30.2881 17.8443C30.4159 17.5759 30.5693 17.3075 30.7483 17.0518C31.1191 16.4127 32.3081 17.1669 31.9885 17.8188C31.9885 17.8188 31.8351 18.1 31.5538 18.5474C30.7355 20.0813 30.3903 21.2189 30.4159 22.0114C30.4159 22.4844 30.5949 22.8167 30.8506 23.0468C31.183 23.3152 31.6816 23.4303 32.2825 23.4558C33.7784 23.4942 35.824 22.8423 37.8441 21.7302C38.2404 21.5257 38.6495 21.7046 38.8029 22.1137C38.9564 22.4971 38.7902 22.9957 38.4066 23.2002C36.1309 24.4401 33.8423 25.1431 32.1419 25.092C31.2597 25.0792 30.5054 24.8619 29.9556 24.4145C29.3292 23.916 28.984 23.213 28.9584 22.2032C28.9456 22.152 28.9584 22.1009 28.9584 22.0625C27.2708 23.8649 24.9311 25.5905 22.0928 25.8078C20.2006 25.9484 19.4718 25.207 19.3951 24.031C19.2928 22.5994 20.533 20.6309 21.5302 19.1098C19.9832 19.9151 17.6947 21.2189 15.1377 22.74C15.5212 22.9829 15.8664 23.2513 16.1221 23.5453C17.4006 24.9642 17.3239 26.9327 14.3322 29.5403C10.9058 32.5697 7.3004 33.7202 5.08857 33.5795C4.25754 33.5284 3.64386 33.3111 3.18359 32.966C2.62105 32.5442 2.33977 31.905 2.4037 31.1253C2.51876 30.0772 3.41372 28.735 5.38263 27.3034C6.34152 26.6131 7.33876 25.9101 8.34878 25.2326C9.26931 24.619 10.2793 23.9543 11.3661 23.2897C11.4428 23.213 11.5451 23.1746 11.6218 23.1107C9.93414 22.7017 8.11865 22.5099 7.27483 22.4332C7.12141 22.4077 6.96799 22.3949 6.85292 22.3693C3.31144 21.9347 1.3681 21.1678 0.562641 20.2474C-0.230036 19.3143 -0.102185 18.3045 0.652137 17.2563C1.25304 16.4766 2.26306 15.6969 3.54157 14.9683C7.97801 12.4629 15.9559 10.3282 19.2673 10.9546L19.2545 10.9034ZM15.0098 24.6957C14.6646 24.2995 14.1277 23.9671 13.4884 23.6987C12.977 23.9927 12.4656 24.325 11.967 24.6446C11.0464 25.2326 10.0492 25.8717 8.98804 26.6003C8.00358 27.2394 7.01913 27.9425 6.07303 28.6199C4.57717 29.7065 3.92513 30.5629 3.83563 31.1509C3.83563 31.2915 3.91234 31.4321 4.06576 31.5344C4.32147 31.7389 4.73059 31.8667 5.28035 31.905C7.21091 32.0329 10.3816 30.9975 13.4756 28.262C15.4317 26.5364 15.6491 25.4115 15.0098 24.6957Z" fill="black"/>
<path d="M175.105 16.924C173.609 17.0007 171.525 17.6909 169.211 18.4451C163.969 20.1707 157.423 22.3437 155.697 17.8187C155.595 17.5631 155.621 17.1796 155.659 16.8984C155.672 16.4255 155.71 16.1059 155.339 15.7863C154.879 15.3773 154.419 15.4412 153.831 16.0931C153.306 16.6683 152.539 17.5375 151.644 18.2661C150.826 18.9308 149.893 19.4805 148.972 19.6083C148.781 19.6211 148.627 19.6211 148.525 19.5444C148.435 19.506 148.41 19.4166 148.371 19.3399C148.333 19.1609 148.346 18.9053 148.435 18.624C148.678 17.8315 149.42 16.7834 150.852 15.6074C150.877 15.5946 150.89 15.569 150.903 15.5435C152.22 14.8021 153.434 14.3675 154.316 14.6615C154.751 14.8276 155.211 14.5848 155.352 14.1118C155.454 13.6772 155.211 13.1915 154.764 13.0509C152.373 12.2328 149.036 14.6615 146.275 16.6939C144.613 17.8954 143.232 18.918 142.887 18.7902C142.784 18.7646 143.04 17.8699 143.845 15.4795C144.446 13.69 144.536 12.7697 142.951 13.3704C142.58 13.511 141.877 14.163 140.598 15.4923C140.381 15.7352 140.151 15.9397 139.92 16.157C138.783 17.1796 137.325 18.0872 136.008 18.5857C134.858 19.0203 133.848 19.1609 133.426 18.7391L133.387 18.7263C132.774 18.0233 133.272 16.8473 134.078 15.7608H134.09C134.244 15.9397 134.384 16.1187 134.563 16.2593C134.781 16.451 135.037 16.6172 135.305 16.6683C135.663 16.7706 136.008 16.7067 136.315 16.451C136.571 16.2465 136.775 15.9142 136.916 15.4284C137.108 14.6743 137.146 13.9201 137.057 13.3832C136.98 13.0381 136.826 12.7313 136.571 12.5268C136.289 12.2839 135.944 12.2072 135.548 12.2967C135.267 12.3606 134.934 12.5524 134.525 12.8847C134.512 12.8336 134.474 12.8208 134.423 12.7952C133.732 12.1178 132.978 12.7313 130.268 15.569C129.04 16.8473 127.915 17.4992 127.123 17.627C126.892 17.627 126.713 17.627 126.573 17.5503C126.509 17.5375 126.483 17.4608 126.445 17.3714C126.355 16.9879 126.483 16.3871 126.918 15.4923C127.826 13.6644 127.915 12.7185 127.263 12.3734C126.598 12.0538 125.652 13.0253 124.259 14.4697C123.696 15.0449 123.019 15.7096 122.251 16.4766C121.638 17.0901 121.165 17.4864 120.807 17.7676C120.896 17.4992 121.05 17.218 121.177 16.924C121.638 15.9653 122.264 14.4442 122.43 13.511C122.507 12.987 122.469 12.5268 122.226 12.2072C121.881 11.7471 121.408 11.632 120.756 12.0411C120.155 12.4118 119.183 13.4216 117.636 15.4284C116.025 17.4864 113.979 18.6752 112.496 18.8158C112.062 18.8669 111.729 18.8286 111.461 18.688C111.32 18.5985 111.231 18.4579 111.179 18.2533C111.128 17.9977 111.128 17.6909 111.231 17.2947C113.161 16.8601 114.926 16.1315 116.613 14.572C117.559 13.7028 117.841 12.6802 117.687 11.8621C117.585 11.3764 117.304 10.9673 116.92 10.6606C116.588 10.4049 116.115 10.2643 115.616 10.2771C114.555 10.3282 113.148 11.0696 111.742 13.0509C111.001 14.0863 110.489 14.981 110.144 15.7991C109.569 15.9014 108.98 16.0036 108.354 16.0931C108.354 16.0931 108.354 16.0931 108.354 16.0675C108.431 15.3134 108.456 14.5336 108.354 13.869C108.29 13.102 108.085 12.4501 107.753 11.9516C107.293 11.2486 106.628 10.8906 105.746 11.044C103.662 11.4019 102.23 13.0637 100.568 15.0194C99.5834 16.157 98.5222 17.4097 97.2054 18.4962C97.1926 18.5218 97.167 18.5218 97.167 18.5218C96.0675 19.4165 94.968 19.9151 94.0219 20.0429C93.536 20.094 93.1013 20.0429 92.7689 19.8767C92.526 19.7489 92.2959 19.5444 92.2064 19.2376C92.0402 18.8541 92.0146 18.3045 92.2064 17.627C92.2447 17.3969 92.3214 17.1668 92.4365 16.924C96.1953 16.4382 100.146 15.4796 101.066 11.517C101.066 11.517 101.066 11.1846 101.066 11.1719C100.951 10.4305 100.632 9.95752 100.172 9.62518C99.6345 9.28005 98.9441 9.25449 98.1898 9.49735C97.525 9.67631 96.7962 10.0598 96.0675 10.5455C94.3671 11.6832 92.5644 13.5238 91.516 15.3134C91.0941 15.3517 90.6849 15.3901 90.3014 15.4284C89.5599 15.5051 88.9078 15.569 88.4092 15.6457H88.3836C88.1663 15.6585 87.9873 15.6969 87.7699 15.7224C87.4247 15.2111 86.9389 14.7765 86.3508 14.4314C85.1873 13.7667 83.5764 13.3449 81.5436 13.2171C80.7893 13.1404 79.613 13.0509 78.2578 13.1404C78.8331 10.4944 78.7309 8.23189 78.0405 6.36565C77.5418 5.02349 76.8003 3.88585 75.8158 2.95273C74.8698 2.03239 73.7063 1.34214 72.4406 0.881969C69.3082 -0.306801 65.4471 -0.242889 61.8801 1.03536C51.3835 4.81897 39.1225 16.3743 39.0842 16.3999C38.7646 16.7194 38.7134 17.2563 38.9947 17.6014C39.2632 17.9594 39.749 18.0233 40.0686 17.7037C40.0942 17.6654 46.2566 11.8621 53.5058 7.20929C53.5058 9.5357 53.9789 15.6841 54.7076 21.8836C55.6154 29.5019 56.9067 37.4015 58.1724 38.6797C58.2619 38.7692 58.3514 38.8459 58.4281 38.897C58.85 39.1271 59.3614 39.0121 59.5787 38.6158C59.8217 38.2196 59.6938 37.721 59.3358 37.4654C58.3769 36.4556 57.2391 28.9906 56.3697 21.6663C55.5259 14.4314 54.8866 7.49051 54.9761 7.11981C55.1423 6.86416 55.1423 6.53182 54.9889 6.27617C57.4181 4.80619 59.9367 3.50237 62.3531 2.63317C65.6005 1.45718 69.1164 1.39327 71.9292 2.45421C73.0159 2.87603 74.0131 3.43846 74.8186 4.21819C75.6113 4.95958 76.2122 5.87991 76.6213 6.96642C77.2222 8.64093 77.2734 10.7373 76.583 13.2937C75.7903 13.4088 74.972 13.5877 74.0643 13.8306C70.7529 14.7765 66.8407 16.8217 62.9157 21.0271C60.5632 23.5581 59.5404 25.3732 59.4509 26.5492C59.3614 27.8913 60.0774 28.5688 61.3431 28.6838C62.2125 28.7733 63.4526 28.4921 64.8334 27.9297C69.1292 26.2424 75.2022 21.6663 77.4012 15.8119C77.5418 15.4795 77.6313 15.1856 77.7464 14.866C79.2934 14.687 80.5847 14.7765 81.4157 14.8788H81.4285C83.244 15.0066 84.6632 15.3645 85.622 15.8886C85.7882 15.9908 85.98 16.1187 86.1207 16.2465C84.1006 17.2563 82.6303 19.1481 81.9399 20.7331C81.6075 21.4873 81.4413 22.2031 81.4541 22.7783C81.4413 23.6348 81.7609 24.2483 82.4513 24.4401C82.9372 24.5679 83.5764 24.4145 84.3435 23.8393L84.3819 23.8137C86.2229 22.2287 87.3864 20.7715 87.9617 19.4932C88.2813 18.7007 88.422 17.9977 88.3708 17.3074C88.4348 17.3074 88.4859 17.2947 88.537 17.2819H88.5626C89.2402 17.2052 89.8028 17.1413 90.4165 17.0901C90.5315 17.0901 90.6338 17.0646 90.7361 17.0518C90.7361 17.0901 90.7105 17.1157 90.7105 17.1413C90.4804 18.2406 90.506 19.1353 90.8 19.8639C91.0685 20.567 91.5671 21.0655 92.1936 21.4106C92.7689 21.679 93.4593 21.7813 94.2136 21.7046C95.4027 21.5512 96.7835 20.9377 98.1259 19.8384C99.5706 18.6624 100.683 17.3586 101.693 16.1442C103.176 14.4314 104.429 12.9614 105.989 12.7058C106.244 12.6546 106.436 12.7569 106.539 12.9358C106.717 13.1659 106.807 13.575 106.858 14.0479C106.948 14.572 106.909 15.2111 106.858 15.8502C106.845 16.0036 106.82 16.1826 106.794 16.3232C105.823 16.4766 104.851 16.6555 103.79 16.924C101.885 17.3714 100.887 17.921 100.504 18.4834C100.069 19.0586 100.108 19.6211 100.44 20.1579C100.632 20.4903 101.003 20.7715 101.437 20.9888C102.562 21.5384 104.544 21.7941 105.656 21.4362C106.717 21.1038 107.561 19.5699 108.034 17.8699C108.047 17.8699 108.086 17.8699 108.137 17.8443C108.661 17.7676 109.159 17.7037 109.658 17.6142C109.62 17.9849 109.645 18.3173 109.684 18.6113C109.837 19.3654 110.233 19.9023 110.822 20.2218C111.333 20.5031 111.972 20.5925 112.65 20.5158C114.465 20.3113 116.946 18.9436 118.825 16.5405C119.528 15.6074 120.129 14.9171 120.577 14.4314C120.334 15.0194 120.091 15.6457 119.835 16.1059C119.413 17.0134 119.093 17.8827 119.081 18.4834C119.068 18.9692 119.221 19.3399 119.554 19.5955C119.835 19.8384 120.206 19.8895 120.679 19.7489C121.229 19.5572 122.072 18.9436 123.287 17.7293C123.926 17.1157 124.54 16.4766 125.102 15.9269C124.885 16.6811 124.847 17.333 125.013 17.8443C125.154 18.4195 125.46 18.8158 125.921 19.0714C126.304 19.2759 126.79 19.3526 127.34 19.2887C128.427 19.1353 129.871 18.33 131.354 16.7834C131.674 16.451 131.917 16.1442 132.134 15.8758C131.431 17.2691 131.29 18.7135 132.313 19.9151C132.364 19.9534 132.403 19.979 132.454 20.0301C133.349 20.8865 134.896 20.7971 136.52 20.1835C137.99 19.6211 139.601 18.624 140.892 17.4864C141.173 17.2307 141.429 16.9623 141.672 16.745C141.749 16.6555 141.825 16.5661 141.915 16.4894C141.237 18.9564 141.506 20.1196 142.426 20.4391C143.411 20.7715 144.971 19.6978 146.812 18.3428C146.671 18.8669 146.658 19.3526 146.773 19.7489C146.901 20.2985 147.221 20.7204 147.643 21.0144C148.052 21.2572 148.602 21.3723 149.177 21.2956C150.468 21.1294 151.67 20.4391 152.706 19.5827C153.243 19.1865 153.69 18.7135 154.099 18.2789C154.138 18.3428 154.15 18.3812 154.163 18.4323C156.464 24.4273 163.829 22.0114 169.735 20.0812C171.947 19.3526 173.929 18.7007 175.195 18.624C175.655 18.5985 176.026 18.2022 176 17.7548C175.962 17.2819 175.591 16.924 175.105 16.9368M112.918 14.099C114.043 12.5396 115.015 11.9644 115.693 11.9516C115.859 11.926 115.987 11.9772 116.102 12.0538C116.153 12.0794 116.166 12.1433 116.204 12.2072C116.255 12.4629 116.102 12.8336 115.654 13.2298C114.58 14.2269 113.417 14.8276 112.19 15.2495C112.407 14.8916 112.663 14.5081 112.931 14.0863L112.918 14.099ZM96.8346 11.9516C97.4483 11.5426 98.0492 11.2358 98.5478 11.0824C98.9441 10.9801 99.2382 10.9546 99.4044 11.0568C99.4428 11.0952 99.4683 11.1335 99.5195 11.2613C98.8419 13.6005 96.3232 14.5336 93.6 14.981C94.5077 13.8434 95.6967 12.7313 96.8474 11.9644L96.8346 11.9516ZM75.9693 15.16C73.962 20.5286 68.2854 24.7596 64.2965 26.3446C63.1202 26.8304 62.1358 27.0605 61.4454 26.9966C61.113 26.971 60.9468 26.8559 60.9595 26.7026C61.0107 25.8973 61.8801 24.4528 63.964 22.2415C67.6206 18.2917 71.3155 16.3743 74.4095 15.4795C74.9592 15.3262 75.4706 15.2111 75.9693 15.1216C75.9693 15.1344 75.9693 15.1344 75.9693 15.16ZM82.8221 22.7911C82.7454 22.7656 82.8093 22.7911 82.8732 22.7911C82.8477 22.8039 82.8221 22.8039 82.8221 22.7911ZM86.5426 18.7646C86.1079 19.8128 85.0851 21.0527 83.4614 22.4716C83.2312 22.6249 83.0522 22.7272 82.9627 22.7656C82.9499 22.4588 83.0906 21.9858 83.3079 21.4873C83.8833 20.1451 85.1106 18.5857 86.8238 17.7932C86.7983 18.0744 86.7088 18.4067 86.5554 18.7646H86.5426ZM105.222 19.7617C104.378 20.0557 102.908 19.8384 102.038 19.4165C101.987 19.391 101.949 19.3654 101.91 19.3399C102.255 19.1098 102.946 18.8541 104.097 18.5729C104.864 18.3812 105.618 18.2406 106.347 18.1127C106.053 18.9819 105.644 19.6339 105.222 19.7745V19.7617Z" fill="black"/>
<path d="M146.211 10.75C146.121 11.3252 145.584 11.6831 145.009 11.5681C144.472 11.4274 144.114 10.9034 144.191 10.3282C144.421 9.03713 146.492 9.1266 146.211 10.75Z" fill="black"/>
<path d="M173.814 11.5808C175.041 11.5808 176 12.5523 176 13.7794C176 15.0065 175.054 15.9908 173.814 15.9908C172.574 15.9908 171.602 15.0321 171.602 13.7794C171.602 12.5267 172.586 11.5808 173.814 11.5808ZM173.788 12.0282C172.855 12.0282 172.139 12.8207 172.139 13.7794C172.139 14.7381 172.842 15.5306 173.814 15.5306C174.76 15.5306 175.45 14.7509 175.45 13.7794C175.45 12.8079 174.76 12.0282 173.801 12.0282H173.788ZM173.469 14.917H172.97V12.7312C173.162 12.6929 173.443 12.6545 173.788 12.6545C174.197 12.6545 174.376 12.7184 174.53 12.8335C174.645 12.923 174.734 13.1019 174.734 13.3064C174.734 13.5621 174.555 13.741 174.287 13.8305V13.8561C174.491 13.92 174.619 14.099 174.683 14.393C174.747 14.7253 174.786 14.8659 174.837 14.9298H174.3C174.236 14.8531 174.197 14.6614 174.133 14.4057C174.095 14.1629 173.967 14.0606 173.686 14.0606H173.456V14.9298L173.469 14.917ZM173.481 13.6899H173.712C173.993 13.6899 174.21 13.6004 174.21 13.3704C174.21 13.1658 174.07 13.038 173.75 13.038C173.622 13.038 173.533 13.038 173.469 13.0636V13.6899H173.481Z" fill="black"/>
<path d="M86.1973 42.783V45.0838C85.0722 44.1379 83.9088 43.6777 82.707 43.6777C81.3773 43.6777 80.265 44.1507 79.3572 45.1094C78.4495 46.0553 77.9892 47.2185 77.9892 48.5862C77.9892 49.9539 78.4495 51.0788 79.3572 52.0119C80.265 52.945 81.3901 53.4052 82.7197 53.4052C83.4101 53.4052 83.9855 53.2902 84.4713 53.0729C84.7398 52.9578 85.0211 52.8172 85.3023 52.6255C85.5836 52.4337 85.8904 52.2037 86.2101 51.9352V54.2872C85.0978 54.9135 83.9215 55.2331 82.707 55.2331C80.8659 55.2331 79.2933 54.594 77.9892 53.3029C76.6852 52.0119 76.0459 50.4397 76.0459 48.6118C76.0459 46.9628 76.5829 45.5056 77.6696 44.2146C79.012 42.6424 80.738 41.8499 82.8604 41.8499C84.0238 41.8499 85.1361 42.1694 86.2229 42.7958L86.1973 42.783Z" fill="black"/>
<path d="M90.9663 47.1418H96.5278V42.0928H98.4712V54.9903H96.5278V48.9697H90.9663V54.9903H89.0229V42.0928H90.9663V47.1418Z" fill="black"/>
<path d="M103.508 42.0928V49.8645C103.508 50.9766 103.687 51.7819 104.045 52.2932C104.582 53.0346 105.349 53.4053 106.321 53.4053C107.293 53.4053 108.073 53.0346 108.61 52.2932C108.968 51.7947 109.147 50.9894 109.147 49.8645V42.0928H111.09V50.3886C111.09 51.7435 110.668 52.8684 109.824 53.7504C108.878 54.7346 107.702 55.2204 106.321 55.2204C104.94 55.2204 103.764 54.7346 102.818 53.7504C101.974 52.8684 101.552 51.7563 101.552 50.3886V42.0928H103.496H103.508Z" fill="black"/>
<path d="M118.569 49.4938L122.558 54.9903H120.18L116.498 49.7111H116.153V54.9903H114.209V42.0928H116.485C118.186 42.0928 119.426 42.4123 120.18 43.0515C121.011 43.7673 121.433 44.7004 121.433 45.8764C121.433 46.7839 121.165 47.5765 120.653 48.2284C120.129 48.8803 119.439 49.3021 118.582 49.4938H118.569ZM116.153 48.0111H116.766C118.608 48.0111 119.528 47.308 119.528 45.9019C119.528 44.5854 118.633 43.9207 116.843 43.9207H116.153V48.0111Z" fill="black"/>
<path d="M133.732 42.783V45.0838C132.607 44.1379 131.444 43.6777 130.242 43.6777C128.912 43.6777 127.8 44.1507 126.892 45.1094C125.985 46.0553 125.524 47.2185 125.524 48.5862C125.524 49.9539 125.985 51.0788 126.892 52.0119C127.8 52.945 128.925 53.4052 130.255 53.4052C130.945 53.4052 131.521 53.2902 132.006 53.0729C132.275 52.9578 132.556 52.8172 132.837 52.6255C133.119 52.4337 133.426 52.2037 133.745 51.9352V54.2872C132.633 54.9135 131.457 55.2331 130.242 55.2331C128.401 55.2331 126.828 54.594 125.524 53.3029C124.22 52.0119 123.581 50.4397 123.581 48.6118C123.581 46.9628 124.118 45.5056 125.205 44.2146C126.547 42.6424 128.273 41.8499 130.396 41.8499C131.559 41.8499 132.671 42.1694 133.758 42.7958L133.732 42.783Z" fill="black"/>
<path d="M138.501 47.1418H144.063V42.0928H146.006V54.9903H144.063V48.9697H138.501V54.9903H136.558V42.0928H138.501V47.1418Z" fill="black"/>
</g>
<defs>
<clipPath id="clip0_74_90">
<rect width="176" height="56" fill="white"/>
</clipPath>
</defs>
</svg>
